<svg xmlns="http://www.w3.org/2000/svg" xmlns:xlink="http://www.w3.org/1999/xlink" contentStyleType="text/css" height="1067px" preserveAspectRatio="none" style="width:878px;height:1067px;background:#FFFFFF;" version="1.1" viewBox="0 0 878 1067" width="878px" zoomAndPan="magnify"><defs/><g><rect fill="#FFFFFF" height="1067" style="stroke:none;stroke-width:1.0;" width="878" x="0" y="0"/><!--cluster autopas::FuzzyLogic--><g id="cluster_autopas::FuzzyLogic"><path d="M9.5,325.08 L169.835,325.08 A5.25,5.25 0 0 1 173.335,328.58 L180.335,347.3769 L581.5,347.3769 A3.5,3.5 0 0 1 585,350.8769 L585,1057.22 A3.5,3.5 0 0 1 581.5,1060.72 L9.5,1060.72 A3.5,3.5 0 0 1 6,1057.22 L6,328.58 A3.5,3.5 0 0 1 9.5,325.08 " fill="none" style="stroke:#393939;stroke-width:1.0;"/><line style="stroke:#393939;stroke-width:1.0;" x1="6" x2="180.335" y1="347.3769" y2="347.3769"/><text fill="#000000" font-family="sans-serif" font-size="14" font-weight="bold" lengthAdjust="spacing" textLength="161.335" x="10" y="340.0751">autopas::FuzzyLogic</text></g><!--class CrispSet--><g id="elem_CrispSet"><rect codeLine="4" fill="#F1F1F1" height="80.5938" id="CrispSet" rx="3.5" ry="3.5" style="stroke:#181818;stroke-width:0.5;" width="284.2002" x="108.9" y="964.13"/><ellipse cx="217.4547" cy="980.13" fill="#ADD1B2" rx="11" ry="11" style="stroke:#181818;stroke-width:1.0;"/><path d="M220.4234,985.7706 Q219.8453,986.0675 219.2047,986.2081 Q218.5641,986.3644 217.8609,986.3644 Q215.3609,986.3644 214.0328,984.7238 Q212.7203,983.0675 212.7203,979.9425 Q212.7203,976.8175 214.0328,975.1613 Q215.3609,973.505 217.8609,973.505 Q218.5641,973.505 219.2047,973.6613 Q219.8609,973.8175 220.4234,974.1144 L220.4234,976.8331 Q219.7984,976.255 219.2047,975.9894 Q218.6109,975.7081 217.9859,975.7081 Q216.6422,975.7081 215.9547,976.7863 Q215.2672,977.8488 215.2672,979.9425 Q215.2672,982.0363 215.9547,983.1144 Q216.6422,984.1769 217.9859,984.1769 Q218.6109,984.1769 219.2047,983.9113 Q219.7984,983.63 220.4234,983.0519 L220.4234,985.7706 Z " fill="#000000"/><text fill="#000000" font-family="sans-serif" font-size="14" lengthAdjust="spacing" textLength="58.5908" x="237.9547" y="984.9767">CrispSet</text><line style="stroke:#181818;stroke-width:0.5;" x1="109.9" x2="392.1002" y1="996.13" y2="996.13"/><rect fill="none" height="6" style="stroke:#C82930;stroke-width:1.0;" width="6" x="116.9" y="1006.7784"/><text fill="#000000" font-family="sans-serif" font-size="14" lengthAdjust="spacing" textLength="258.2002" x="128.9" y="1013.1251">std::map&lt;std::string, Interval&gt; kCell</text><line style="stroke:#181818;stroke-width:0.5;" x1="109.9" x2="392.1002" y1="1020.4269" y2="1020.4269"/><ellipse cx="119.9" cy="1034.0753" fill="#84BE84" rx="3" ry="3" style="stroke:#038048;stroke-width:1.0;"/><text fill="#000000" font-family="sans-serif" font-size="14" lengthAdjust="spacing" textLength="226.1396" x="128.9" y="1037.422">CrispSet operator*(CrispSet rhs)</text></g><!--class FuzzySet--><g id="elem_FuzzySet"><rect codeLine="9" fill="#F1F1F1" height="194.6719" id="FuzzySet" rx="3.5" ry="3.5" style="stroke:#181818;stroke-width:0.5;" width="371.8916" x="65.05" y="708.45"/><ellipse cx="215.2971" cy="724.45" fill="#ADD1B2" rx="11" ry="11" style="stroke:#181818;stroke-width:1.0;"/><path d="M218.2658,730.0906 Q217.6877,730.3875 217.0471,730.5281 Q216.4064,730.6844 215.7033,730.6844 Q213.2033,730.6844 211.8752,729.0438 Q210.5627,727.3875 210.5627,724.2625 Q210.5627,721.1375 211.8752,719.4813 Q213.2033,717.825 215.7033,717.825 Q216.4064,717.825 217.0471,717.9813 Q217.7033,718.1375 218.2658,718.4344 L218.2658,721.1531 Q217.6408,720.575 217.0471,720.3094 Q216.4533,720.0281 215.8283,720.0281 Q214.4846,720.0281 213.7971,721.1063 Q213.1096,722.1688 213.1096,724.2625 Q213.1096,726.3563 213.7971,727.4344 Q214.4846,728.4969 215.8283,728.4969 Q216.4533,728.4969 217.0471,728.2313 Q217.6408,727.95 218.2658,727.3719 L218.2658,730.0906 Z " fill="#000000"/><text fill="#000000" font-family="sans-serif" font-size="14" lengthAdjust="spacing" textLength="62.8975" x="235.7971" y="729.2967">FuzzySet</text><line style="stroke:#181818;stroke-width:0.5;" x1="66.05" x2="435.9416" y1="740.45" y2="740.45"/><rect fill="none" height="6" style="stroke:#C82930;stroke-width:1.0;" width="6" x="73.05" y="751.0984"/><text fill="#000000" font-family="sans-serif" font-size="14" lengthAdjust="spacing" textLength="109.2383" x="85.05" y="757.4451">std::string term</text><rect fill="none" height="6" style="stroke:#C82930;stroke-width:1.0;" width="6" x="73.05" y="767.3953"/><text fill="#000000" font-family="sans-serif" font-size="14" lengthAdjust="spacing" textLength="299.6943" x="85.05" y="773.742">MembershipFunction membershipFunction</text><rect fill="#F24D5C" height="6" style="stroke:#C82930;stroke-width:1.0;" width="6" x="73.05" y="783.6922"/><text fill="#000000" font-family="sans-serif" font-size="14" lengthAdjust="spacing" textLength="175.2119" x="85.05" y="790.0389">double centerOfGravity()</text><rect fill="#F24D5C" height="6" style="stroke:#C82930;stroke-width:1.0;" width="6" x="73.05" y="799.9891"/><text fill="#000000" font-family="sans-serif" font-size="14" lengthAdjust="spacing" textLength="187.7217" x="85.05" y="806.3357">double meanOfMaximum()</text><ellipse cx="76.05" cy="819.2859" fill="#84BE84" rx="3" ry="3" style="stroke:#038048;stroke-width:1.0;"/><text fill="#000000" font-family="sans-serif" font-size="14" lengthAdjust="spacing" textLength="279.9521" x="85.05" y="822.6326">double evaluateMembership(Data data)</text><ellipse cx="76.05" cy="835.5828" fill="#84BE84" rx="3" ry="3" style="stroke:#038048;stroke-width:1.0;"/><text fill="#000000" font-family="sans-serif" font-size="14" lengthAdjust="spacing" textLength="237.2139" x="85.05" y="838.9295">double defuzzify(Method method)</text><line style="stroke:#181818;stroke-width:1.0;stroke-dasharray:1.0,2.0;" x1="66.05" x2="435.9416" y1="846.2313" y2="846.2313"/><ellipse cx="76.05" cy="859.8797" fill="#84BE84" rx="3" ry="3" style="stroke:#038048;stroke-width:1.0;"/><text fill="#000000" font-family="sans-serif" font-size="14" lengthAdjust="spacing" textLength="333.4912" x="85.05" y="863.2264">FuzzySet operator||(FuzzySet lhs, FuzzySet rhs)</text><ellipse cx="76.05" cy="876.1766" fill="#84BE84" rx="3" ry="3" style="stroke:#038048;stroke-width:1.0;"/><text fill="#000000" font-family="sans-serif" font-size="14" lengthAdjust="spacing" textLength="345.8916" x="85.05" y="879.5232">FuzzySet operator&amp;&amp;(FuzzySet lhs, FuzzySet rhs)</text><ellipse cx="76.05" cy="892.4734" fill="#84BE84" rx="3" ry="3" style="stroke:#038048;stroke-width:1.0;"/><text fill="#000000" font-family="sans-serif" font-size="14" lengthAdjust="spacing" textLength="271.2158" x="85.05" y="895.8201">FuzzySet operator!(FuzzySet fuzzySet)</text></g><!--class LinguisticVariable--><g id="elem_LinguisticVariable"><rect codeLine="22" fill="#F1F1F1" height="96.8906" id="LinguisticVariable" rx="3.5" ry="3.5" style="stroke:#181818;stroke-width:0.5;" width="299.998" x="22" y="550.56"/><ellipse cx="105.5728" cy="566.56" fill="#ADD1B2" rx="11" ry="11" style="stroke:#181818;stroke-width:1.0;"/><path d="M108.5415,572.2006 Q107.9634,572.4975 107.3228,572.6381 Q106.6821,572.7944 105.979,572.7944 Q103.479,572.7944 102.1509,571.1538 Q100.8384,569.4975 100.8384,566.3725 Q100.8384,563.2475 102.1509,561.5913 Q103.479,559.935 105.979,559.935 Q106.6821,559.935 107.3228,560.0913 Q107.979,560.2475 108.5415,560.5444 L108.5415,563.2631 Q107.9165,562.685 107.3228,562.4194 Q106.729,562.1381 106.104,562.1381 Q104.7603,562.1381 104.0728,563.2163 Q103.3853,564.2788 103.3853,566.3725 Q103.3853,568.4663 104.0728,569.5444 Q104.7603,570.6069 106.104,570.6069 Q106.729,570.6069 107.3228,570.3413 Q107.9165,570.06 108.5415,569.4819 L108.5415,572.2006 Z " fill="#000000"/><text fill="#000000" font-family="sans-serif" font-size="14" lengthAdjust="spacing" textLength="124.3525" x="126.0728" y="571.4067">LinguisticVariable</text><line style="stroke:#181818;stroke-width:0.5;" x1="23" x2="320.998" y1="582.56" y2="582.56"/><rect fill="none" height="6" style="stroke:#C82930;stroke-width:1.0;" width="6" x="30" y="593.2084"/><text fill="#000000" font-family="sans-serif" font-size="14" lengthAdjust="spacing" textLength="115.4453" x="42" y="599.5551">std::string name</text><rect fill="none" height="6" style="stroke:#C82930;stroke-width:1.0;" width="6" x="30" y="609.5053"/><text fill="#000000" font-family="sans-serif" font-size="14" lengthAdjust="spacing" textLength="273.998" x="42" y="615.852">std::map&lt;std::string, FuzzySet&gt; terms</text><line style="stroke:#181818;stroke-width:0.5;" x1="23" x2="320.998" y1="623.1538" y2="623.1538"/><ellipse cx="33" cy="636.8022" fill="#84BE84" rx="3" ry="3" style="stroke:#038048;stroke-width:1.0;"/><text fill="#000000" font-family="sans-serif" font-size="14" lengthAdjust="spacing" textLength="271.1816" x="42" y="640.1489">FuzzySet operator==(std::string term)</text></g><!--class FuzzyRule--><g id="elem_FuzzyRule"><rect codeLine="28" fill="#F1F1F1" height="96.8906" id="FuzzyRule" rx="3.5" ry="3.5" style="stroke:#181818;stroke-width:0.5;" width="212.2109" x="356.89" y="550.56"/><ellipse cx="423.2396" cy="566.56" fill="#ADD1B2" rx="11" ry="11" style="stroke:#181818;stroke-width:1.0;"/><path d="M426.2084,572.2006 Q425.6302,572.4975 424.9896,572.6381 Q424.349,572.7944 423.6459,572.7944 Q421.1459,572.7944 419.8177,571.1538 Q418.5052,569.4975 418.5052,566.3725 Q418.5052,563.2475 419.8177,561.5913 Q421.1459,559.935 423.6459,559.935 Q424.349,559.935 424.9896,560.0913 Q425.6459,560.2475 426.2084,560.5444 L426.2084,563.2631 Q425.5834,562.685 424.9896,562.4194 Q424.3959,562.1381 423.7709,562.1381 Q422.4271,562.1381 421.7396,563.2163 Q421.0521,564.2788 421.0521,566.3725 Q421.0521,568.4663 421.7396,569.5444 Q422.4271,570.6069 423.7709,570.6069 Q424.3959,570.6069 424.9896,570.3413 Q425.5834,570.06 426.2084,569.4819 L426.2084,572.2006 Z " fill="#000000"/><text fill="#000000" font-family="sans-serif" font-size="14" lengthAdjust="spacing" textLength="71.0117" x="443.7396" y="571.4067">FuzzyRule</text><line style="stroke:#181818;stroke-width:0.5;" x1="357.89" x2="568.1009" y1="582.56" y2="582.56"/><rect fill="none" height="6" style="stroke:#C82930;stroke-width:1.0;" width="6" x="364.89" y="593.2084"/><text fill="#000000" font-family="sans-serif" font-size="14" lengthAdjust="spacing" textLength="147.0752" x="376.89" y="599.5551">FuzzySet antecedent</text><rect fill="none" height="6" style="stroke:#C82930;stroke-width:1.0;" width="6" x="364.89" y="609.5053"/><text fill="#000000" font-family="sans-serif" font-size="14" lengthAdjust="spacing" textLength="149.126" x="376.89" y="615.852">FuzzySet consequent</text><line style="stroke:#181818;stroke-width:0.5;" x1="357.89" x2="568.1009" y1="623.1538" y2="623.1538"/><ellipse cx="367.89" cy="636.8022" fill="#84BE84" rx="3" ry="3" style="stroke:#038048;stroke-width:1.0;"/><text fill="#000000" font-family="sans-serif" font-size="14" lengthAdjust="spacing" textLength="186.2109" x="376.89" y="640.1489">FuzzySet apply(Data data)</text></g><!--class FuzzySystem--><g id="elem_FuzzySystem"><rect codeLine="34" fill="#F1F1F1" height="129.4844" id="FuzzySystem" rx="3.5" ry="3.5" style="stroke:#181818;stroke-width:0.5;" width="250.6084" x="192.7" y="360.08"/><ellipse cx="267.6971" cy="376.08" fill="#ADD1B2" rx="11" ry="11" style="stroke:#181818;stroke-width:1.0;"/><path d="M270.6658,381.7206 Q270.0877,382.0175 269.4471,382.1581 Q268.8064,382.3144 268.1033,382.3144 Q265.6033,382.3144 264.2752,380.6738 Q262.9627,379.0175 262.9627,375.8925 Q262.9627,372.7675 264.2752,371.1113 Q265.6033,369.455 268.1033,369.455 Q268.8064,369.455 269.4471,369.6113 Q270.1033,369.7675 270.6658,370.0644 L270.6658,372.7831 Q270.0408,372.205 269.4471,371.9394 Q268.8533,371.6581 268.2283,371.6581 Q266.8846,371.6581 266.1971,372.7363 Q265.5096,373.7988 265.5096,375.8925 Q265.5096,377.9863 266.1971,379.0644 Q266.8846,380.1269 268.2283,380.1269 Q268.8533,380.1269 269.4471,379.8613 Q270.0408,379.58 270.6658,379.0019 L270.6658,381.7206 Z " fill="#000000"/><text fill="#000000" font-family="sans-serif" font-size="14" lengthAdjust="spacing" textLength="92.1143" x="288.1971" y="380.9267">FuzzySystem</text><line style="stroke:#181818;stroke-width:0.5;" x1="193.7" x2="442.3084" y1="392.08" y2="392.08"/><rect fill="none" height="6" style="stroke:#C82930;stroke-width:1.0;" width="6" x="200.7" y="402.7284"/><text fill="#000000" font-family="sans-serif" font-size="14" lengthAdjust="spacing" textLength="208.5234" x="212.7" y="409.0751">FuzzyControlSettings settings</text><rect fill="none" height="6" style="stroke:#C82930;stroke-width:1.0;" width="6" x="200.7" y="419.0253"/><text fill="#000000" font-family="sans-serif" font-size="14" lengthAdjust="spacing" textLength="176.2441" x="212.7" y="425.372">std::string outputDomain</text><line style="stroke:#181818;stroke-width:0.5;" x1="193.7" x2="442.3084" y1="432.6738" y2="432.6738"/><ellipse cx="203.7" cy="446.3222" fill="#84BE84" rx="3" ry="3" style="stroke:#038048;stroke-width:1.0;"/><text fill="#000000" font-family="sans-serif" font-size="14" lengthAdjust="spacing" textLength="205.0508" x="212.7" y="449.6689">void addRule(FuzzyRule rule)</text><ellipse cx="203.7" cy="462.6191" fill="#84BE84" rx="3" ry="3" style="stroke:#038048;stroke-width:1.0;"/><text fill="#000000" font-family="sans-serif" font-size="14" lengthAdjust="spacing" textLength="224.6084" x="212.7" y="465.9657">FuzzySet applyRules(Data data)</text><ellipse cx="203.7" cy="478.9159" fill="#84BE84" rx="3" ry="3" style="stroke:#038048;stroke-width:1.0;"/><text fill="#000000" font-family="sans-serif" font-size="14" lengthAdjust="spacing" textLength="181.7197" x="212.7" y="482.2626">double predict(Data data)</text></g><!--class OutputMapper--><g id="elem_OutputMapper"><rect codeLine="45" fill="#F1F1F1" height="80.5938" id="OutputMapper" rx="3.5" ry="3.5" style="stroke:#181818;stroke-width:0.5;" width="306.0752" x="564.96" y="156.74"/><ellipse cx="663.0318" cy="172.74" fill="#ADD1B2" rx="11" ry="11" style="stroke:#181818;stroke-width:1.0;"/><path d="M666.0005,178.3806 Q665.4224,178.6775 664.7818,178.8181 Q664.1412,178.9744 663.438,178.9744 Q660.938,178.9744 659.6099,177.3338 Q658.2974,175.6775 658.2974,172.5525 Q658.2974,169.4275 659.6099,167.7713 Q660.938,166.115 663.438,166.115 Q664.1412,166.115 664.7818,166.2713 Q665.438,166.4275 666.0005,166.7244 L666.0005,169.4431 Q665.3755,168.865 664.7818,168.5994 Q664.188,168.3181 663.563,168.3181 Q662.2193,168.3181 661.5318,169.3963 Q660.8443,170.4588 660.8443,172.5525 Q660.8443,174.6463 661.5318,175.7244 Q662.2193,176.7869 663.563,176.7869 Q664.188,176.7869 664.7818,176.5213 Q665.3755,176.24 666.0005,175.6619 L666.0005,178.3806 Z " fill="#000000"/><text fill="#000000" font-family="sans-serif" font-size="14" lengthAdjust="spacing" textLength="101.4316" x="683.5318" y="177.5867">OutputMapper</text><line style="stroke:#181818;stroke-width:0.5;" x1="565.96" x2="870.0352" y1="188.74" y2="188.74"/><rect fill="none" height="6" style="stroke:#C82930;stroke-width:1.0;" width="6" x="572.96" y="199.3884"/><text fill="#000000" font-family="sans-serif" font-size="14" lengthAdjust="spacing" textLength="280.0752" x="584.96" y="205.7351">std::map&lt;double, Configurations&gt; map</text><line style="stroke:#181818;stroke-width:0.5;" x1="565.96" x2="870.0352" y1="213.0369" y2="213.0369"/><ellipse cx="575.96" cy="226.6853" fill="#84BE84" rx="3" ry="3" style="stroke:#038048;stroke-width:1.0;"/><text fill="#000000" font-family="sans-serif" font-size="14" lengthAdjust="spacing" textLength="279.1182" x="584.96" y="230.032">Configurations closestConfigs(double x)</text></g><!--class FuzzyTuningStrategy--><g id="elem_FuzzyTuningStrategy"><rect codeLine="50" fill="#F1F1F1" height="162.0781" id="FuzzyTuningStrategy" rx="3.5" ry="3.5" style="stroke:#181818;stroke-width:0.5;" width="423.3115" x="106.34" y="116"/><ellipse cx="239.8254" cy="132" fill="#ADD1B2" rx="11" ry="11" style="stroke:#181818;stroke-width:1.0;"/><path d="M242.7941,137.6406 Q242.216,137.9375 241.5754,138.0781 Q240.9347,138.2344 240.2316,138.2344 Q237.7316,138.2344 236.4035,136.5938 Q235.091,134.9375 235.091,131.8125 Q235.091,128.6875 236.4035,127.0313 Q237.7316,125.375 240.2316,125.375 Q240.9347,125.375 241.5754,125.5313 Q242.2316,125.6875 242.7941,125.9844 L242.7941,128.7031 Q242.1691,128.125 241.5754,127.8594 Q240.9816,127.5781 240.3566,127.5781 Q239.0129,127.5781 238.3254,128.6563 Q237.6379,129.7188 237.6379,131.8125 Q237.6379,133.9063 238.3254,134.9844 Q239.0129,136.0469 240.3566,136.0469 Q240.9816,136.0469 241.5754,135.7813 Q242.1691,135.5 242.7941,134.9219 L242.7941,137.6406 Z " fill="#000000"/><text fill="#000000" font-family="sans-serif" font-size="14" lengthAdjust="spacing" textLength="147.8408" x="260.3254" y="136.8467">FuzzyTuningStrategy</text><line style="stroke:#181818;stroke-width:0.5;" x1="107.34" x2="528.6515" y1="148" y2="148"/><line style="stroke:#181818;stroke-width:0.5;" x1="107.34" x2="528.6515" y1="156" y2="156"/><rect fill="#F24D5C" height="6" style="stroke:#C82930;stroke-width:1.0;" width="6" x="114.34" y="166.6484"/><text fill="#000000" font-family="sans-serif" font-size="14" lengthAdjust="spacing" textLength="321.8838" x="126.34" y="172.9951">FuzzyFile parseFuzzyRuleFile(std::string path)</text><rect fill="#F24D5C" height="6" style="stroke:#C82930;stroke-width:1.0;" width="6" x="114.34" y="182.9453"/><text fill="#000000" font-family="sans-serif" font-size="14" lengthAdjust="spacing" textLength="382.4092" x="126.34" y="189.292">void evaluateSuitability(Configurations &amp;configQueue)</text><rect fill="#F24D5C" height="6" style="stroke:#C82930;stroke-width:1.0;" width="6" x="114.34" y="199.2422"/><text fill="#000000" font-family="sans-serif" font-size="14" lengthAdjust="spacing" textLength="380.543" x="126.34" y="205.5889">void evaluateIndividual(Configurations &amp;configQueue)</text><ellipse cx="117.34" cy="218.5391" fill="#84BE84" rx="3" ry="3" style="stroke:#038048;stroke-width:1.0;"/><text fill="#000000" font-family="sans-serif" font-size="14" lengthAdjust="spacing" textLength="142.6455" x="126.34" y="221.8857">bool needsLiveInfo()</text><ellipse cx="117.34" cy="234.8359" fill="#84BE84" rx="3" ry="3" style="stroke:#038048;stroke-width:1.0;"/><text fill="#000000" font-family="sans-serif" font-size="14" lengthAdjust="spacing" textLength="249.3271" x="126.34" y="238.1826">void receiveLiveInfo(LiveInfo value)</text><ellipse cx="117.34" cy="251.1328" fill="#84BE84" rx="3" ry="3" style="stroke:#038048;stroke-width:1.0;"/><text fill="#000000" font-family="sans-serif" font-size="14" lengthAdjust="spacing" textLength="287.2051" x="126.34" y="254.4795">void reset(Configurations &amp;configQueue)</text><ellipse cx="117.34" cy="267.4297" fill="#84BE84" rx="3" ry="3" style="stroke:#038048;stroke-width:1.0;"/><text fill="#000000" font-family="sans-serif" font-size="14" lengthAdjust="spacing" textLength="397.3115" x="126.34" y="270.7764">void optimizeSuggestions(Configurations &amp;configQueue)</text></g><!--class TuningStrategyInterface--><g id="elem_TuningStrategyInterface"><rect codeLine="62" fill="#F1F1F1" height="48" id="TuningStrategyInterface" rx="3.5" ry="3.5" style="stroke:#181818;stroke-width:0.5;" width="202.6113" x="216.69" y="7"/><ellipse cx="231.69" cy="23" fill="#B4A7E5" rx="11" ry="11" style="stroke:#181818;stroke-width:1.0;"/><path d="M227.6119,18.7656 L227.6119,16.6094 L235.0025,16.6094 L235.0025,18.7656 L232.5338,18.7656 L232.5338,26.8438 L235.0025,26.8438 L235.0025,29 L227.6119,29 L227.6119,26.8438 L230.0806,26.8438 L230.0806,18.7656 L227.6119,18.7656 Z " fill="#000000"/><text fill="#000000" font-family="sans-serif" font-size="14" font-style="italic" lengthAdjust="spacing" textLength="170.6113" x="245.69" y="27.8467">TuningStrategyInterface</text><line style="stroke:#181818;stroke-width:0.5;" x1="217.69" x2="418.3013" y1="39" y2="39"/><line style="stroke:#181818;stroke-width:0.5;" x1="217.69" x2="418.3013" y1="47" y2="47"/></g><!--reverse link FuzzySet to CrispSet--><g id="link_FuzzySet_CrispSet"><path codeLine="65" d="M251,915.38 C251,936.75 251,946.22 251,963.77 " fill="none" id="FuzzySet-backto-CrispSet" style="stroke:#191919;stroke-width:1.0;"/><polygon fill="#191919" points="251,903.38,247,909.38,251,915.38,255,909.38,251,903.38" style="stroke:#191919;stroke-width:1.0;"/><text fill="#000000" font-family="sans-serif" font-size="13" lengthAdjust="spacing" textLength="8.271" x="234.4325" y="923.1696">1</text><text fill="#000000" font-family="sans-serif" font-size="13" lengthAdjust="spacing" textLength="8.271" x="233.7677" y="953.1725">1</text></g><!--reverse link FuzzySet to FuzzySet--><g id="link_FuzzySet_FuzzySet"><path codeLine="66" d="M448.98,787.6069 C470.08,791.4069 471.95,796.05 471.95,805.79 C471.95,815.53 458.27,822.3 437.17,826.1 " fill="none" id="FuzzySet-backto-FuzzySet" style="stroke:#191919;stroke-width:1.0;"/><polygon fill="#191919" points="437.17,785.48,442.366,790.4801,448.98,787.6069,443.784,782.6068,437.17,785.48" style="stroke:#191919;stroke-width:1.0;"/><text fill="#000000" font-family="sans-serif" font-size="13" lengthAdjust="spacing" textLength="59.5664" x="477.95" y="810.3569">based on</text><text fill="#000000" font-family="sans-serif" font-size="13" lengthAdjust="spacing" textLength="55.3008" x="449.0609" y="781.55">parent 1</text><text fill="#000000" font-family="sans-serif" font-size="13" lengthAdjust="spacing" textLength="81.3833" x="444.614" y="839.0817">children 0..2</text></g><!--reverse link LinguisticVariable to FuzzySet--><g id="link_LinguisticVariable_FuzzySet"><path codeLine="68" d="M194.7398,658.9555 C201.7198,677.0455 205.61,687.14 213.71,708.12 " fill="none" id="LinguisticVariable-backto-FuzzySet" style="stroke:#191919;stroke-width:1.0;"/><polygon fill="#191919" points="190.42,647.76,188.848,654.7977,194.7398,658.9555,196.3117,651.9178,190.42,647.76" style="stroke:#191919;stroke-width:1.0;"/><text fill="#000000" font-family="sans-serif" font-size="13" lengthAdjust="spacing" textLength="8.271" x="175.8563" y="667.395">1</text><text fill="#000000" font-family="sans-serif" font-size="13" lengthAdjust="spacing" textLength="10.6323" x="192.3438" y="697.4686">&#8206; *</text></g><!--reverse link FuzzyRule to FuzzySet--><g id="link_FuzzyRule_FuzzySet"><path codeLine="69" d="M404.9308,656.0988 C386.2108,674.1888 372.79,687.14 351.08,708.12 " fill="none" id="FuzzyRule-backto-FuzzySet" style="stroke:#191919;stroke-width:1.0;"/><polygon fill="#191919" points="413.56,647.76,406.4658,649.053,404.9308,656.0988,412.025,654.8058,413.56,647.76" style="stroke:#191919;stroke-width:1.0;"/><text fill="#000000" font-family="sans-serif" font-size="13" lengthAdjust="spacing" textLength="8.271" x="381.3584" y="667.395">&#8206;1</text><text fill="#000000" font-family="sans-serif" font-size="13" lengthAdjust="spacing" textLength="8.271" x="346.0041" y="697.4686">2</text></g><!--reverse link FuzzySystem to FuzzyRule--><g id="link_FuzzySystem_FuzzyRule"><path codeLine="71" d="M379.7209,499.1179 C396.5509,519.0979 407.08,531.6 422.79,550.26 " fill="none" id="FuzzySystem-backto-FuzzyRule" style="stroke:#191919;stroke-width:1.0;"/><polygon fill="#191919" points="371.99,489.94,372.7962,497.1059,379.7209,499.1179,378.9147,491.952,371.99,489.94" style="stroke:#191919;stroke-width:1.0;"/><text fill="#000000" font-family="sans-serif" font-size="13" lengthAdjust="spacing" textLength="8.271" x="360.7599" y="509.5025">1</text><text fill="#000000" font-family="sans-serif" font-size="13" lengthAdjust="spacing" textLength="10.6323" x="392.521" y="539.4267">&#8206; *</text></g><!--reverse link FuzzyTuningStrategy to FuzzySystem--><g id="link_FuzzyTuningStrategy_FuzzySystem"><path codeLine="73" d="M318,290.28 C318,317.02 318,334.44 318,359.79 " fill="none" id="FuzzyTuningStrategy-backto-FuzzySystem" style="stroke:#191919;stroke-width:1.0;"/><polygon fill="none" points="318,278.28,314,284.28,318,290.28,322,284.28,318,278.28" style="stroke:#191919;stroke-width:1.0;"/><text fill="#000000" font-family="sans-serif" font-size="13" lengthAdjust="spacing" textLength="8.271" x="301.3117" y="298.2563">1</text><text fill="#000000" font-family="sans-serif" font-size="13" lengthAdjust="spacing" textLength="10.6323" x="299.0642" y="348.9309">&#8206; *</text></g><!--reverse link FuzzyTuningStrategy to OutputMapper--><g id="link_FuzzyTuningStrategy_OutputMapper"><path codeLine="74" d="M542.11,197.04 C553.61,197.04 553.11,197.04 564.6,197.04 " fill="none" id="FuzzyTuningStrategy-backto-OutputMapper" style="stroke:#191919;stroke-width:1.0;"/><polygon fill="#191919" points="530.11,197.04,536.11,201.04,542.11,197.04,536.11,193.04,530.11,197.04" style="stroke:#191919;stroke-width:1.0;"/><text fill="#000000" font-family="sans-serif" font-size="13" lengthAdjust="spacing" textLength="8.271" x="537.8815" y="193.8398">1</text><text fill="#000000" font-family="sans-serif" font-size="13" lengthAdjust="spacing" textLength="6.5" x="550.5486" y="193.7238">&#8206;*</text></g><!--reverse link TuningStrategyInterface to FuzzyTuningStrategy--><g id="link_TuningStrategyInterface_FuzzyTuningStrategy"><path codeLine="75" d="M318,73.16 C318,89.14 318,93.43 318,115.57 " fill="none" id="TuningStrategyInterface-backto-FuzzyTuningStrategy" style="stroke:#191919;stroke-width:1.0;stroke-dasharray:7.0,7.0;"/><polygon fill="none" points="318,55.16,312,73.16,324,73.16,318,55.16" style="stroke:#191919;stroke-width:1.0;"/></g><!--link LinguisticVariable to FuzzyRule--><!--link FuzzySystem to LinguisticVariable--><!--SRC=[dLHBRjim4Dth58mNXcn7HfEbqNYJ88M1646RefkY2reSMKGbKUN7Y9CKw0bwo9oaGr8Vov8Je8OXKJDlPjxyUAPJo87aLAgWe3ceaiP0gD6Yf6gnk3LFJ_ixiUKnUGu2GkACAaMk9LVb0sYK4VpDcczHWgHQo6dOY6Ig9WuLASqMYvoM7zr1QScBxJbP5HhaZcPBylCQiWoXlzj0BdmRA3gm96YMU-aQyWr8bVBorXInvg8WUK_aeKoOJGOa1XlrFlaawOxhVJZfQ7EWnNsofeyyDtcbcrKwGAg6QcXZXZTKKyBmqKKoI90zJ_RX6dGg6BgrBm-QppssIR2ktCjBsCYoL9st9MWAsJSQZ__3wAorIQh3f5lzEoopuKhp-1kLdDgadayukxeAZtipwRVC3jXRir2xNJe7Qc0MlfY6HDIGeDZC61Zsz4WHYqB1BrChMjgqBBDzjt6zgTih3NcTy4vmHYXZDdxOCf7uc0pvjbfrQZ9A2Op7-bZjUL-BGakHeIUDDL54LOT-DONHfT4t8gUyy0dWF_0ft3lT6hc0T3dCq6_2jmQxXSkWC5EXG6alLM75xD4oQPlZfUUaQxl4swAqiGwgzTKKIEb18mIsUnVHftFBRS9ukq1JDIlgJ4j9TUe2kohN6_PWkAORdjdzF28_ZjttPmC6-eQhWl4TPuPcxzdDDa9af01Wwexlq30HRjrzkoKE5KeRJNqWDWuSuh17xuPoK55gdlCdp6sxnUfRvDk6jgC1jvTLOk_bRfbNZVpPufe975qGCYBJAAfEpLry0B4zmRqW5nKmJdd6K48-pEUNe_O2MP0DLO3CYo0Ok0yEGht- -Kkczgkn3Tf5iTeBEy4L-BA32muthk-onZfF5VXeuBoH6E3XdPumid6ajvcEkaipQ34tyvVbgIu4WnMAvFUKCxoSVaHj5eD0SmJqrFy1]--></g></svg>