<svg xmlns="http://www.w3.org/2000/svg" xmlns:xlink="http://www.w3.org/1999/xlink" contentStyleType="text/css" height="1067px" preserveAspectRatio="none" style="width:867px;height:1067px;background:#FFFFFF;" version="1.1" viewBox="0 0 867 1067" width="867px" zoomAndPan="magnify"><defs/><g><rect fill="#FFFFFF" height="1067" style="stroke:none;stroke-width:1.0;" width="867" x="0" y="0"/><!--cluster autopas::FuzzyLogic--><g id="cluster_autopas::FuzzyLogic"><path d="M9.5,325.08 L171.5,325.08 A5.25,5.25 0 0 1 175,328.58 L182,347.3769 L571.5,347.3769 A3.5,3.5 0 0 1 575,350.8769 L575,1057.22 A3.5,3.5 0 0 1 571.5,1060.72 L9.5,1060.72 A3.5,3.5 0 0 1 6,1057.22 L6,328.58 A3.5,3.5 0 0 1 9.5,325.08 " fill="none" style="stroke:#393939;stroke-width:1.0;"/><line style="stroke:#393939;stroke-width:1.0;" x1="6" x2="182" y1="347.3769" y2="347.3769"/><text fill="#000000" font-family="sans-serif" font-size="14" font-weight="bold" lengthAdjust="spacing" textLength="163" x="10" y="340.0751">autopas::FuzzyLogic</text></g><!--class CrispSet--><g id="elem_CrispSet"><rect codeLine="4" fill="#F1F1F1" height="80.5938" id="CrispSet" rx="3.5" ry="3.5" style="stroke:#181818;stroke-width:0.5;" width="277" x="107.5" y="964.13"/><ellipse cx="212.75" cy="980.13" fill="#ADD1B2" rx="11" ry="11" style="stroke:#181818;stroke-width:1.0;"/><path d="M215.7188,985.7706 Q215.1406,986.0675 214.5,986.2081 Q213.8594,986.3644 213.1563,986.3644 Q210.6563,986.3644 209.3281,984.7238 Q208.0156,983.0675 208.0156,979.9425 Q208.0156,976.8175 209.3281,975.1613 Q210.6563,973.505 213.1563,973.505 Q213.8594,973.505 214.5,973.6613 Q215.1563,973.8175 215.7188,974.1144 L215.7188,976.8331 Q215.0938,976.255 214.5,975.9894 Q213.9063,975.7081 213.2813,975.7081 Q211.9375,975.7081 211.25,976.7863 Q210.5625,977.8488 210.5625,979.9425 Q210.5625,982.0363 211.25,983.1144 Q211.9375,984.1769 213.2813,984.1769 Q213.9063,984.1769 214.5,983.9113 Q215.0938,983.63 215.7188,983.0519 L215.7188,985.7706 Z " fill="#000000"/><text fill="#000000" font-family="sans-serif" font-size="14" lengthAdjust="spacing" textLength="58" x="233.25" y="984.9767">CrispSet</text><line style="stroke:#181818;stroke-width:0.5;" x1="108.5" x2="383.5" y1="996.13" y2="996.13"/><rect fill="none" height="6" style="stroke:#C82930;stroke-width:1.0;" width="6" x="115.5" y="1006.7784"/><text fill="#000000" font-family="sans-serif" font-size="14" lengthAdjust="spacing" textLength="251" x="127.5" y="1013.1251">std::map&lt;std::string, Interval&gt; kCell</text><line style="stroke:#181818;stroke-width:0.5;" x1="108.5" x2="383.5" y1="1020.4269" y2="1020.4269"/><ellipse cx="118.5" cy="1034.0753" fill="#84BE84" rx="3" ry="3" style="stroke:#038048;stroke-width:1.0;"/><text fill="#000000" font-family="sans-serif" font-size="14" lengthAdjust="spacing" textLength="222" x="127.5" y="1037.422">CrispSet operator*(CrispSet rhs)</text></g><!--class FuzzySet--><g id="elem_FuzzySet"><rect codeLine="9" fill="#F1F1F1" height="194.6719" id="FuzzySet" rx="3.5" ry="3.5" style="stroke:#181818;stroke-width:0.5;" width="370" x="61" y="708.45"/><ellipse cx="210.25" cy="724.45" fill="#ADD1B2" rx="11" ry="11" style="stroke:#181818;stroke-width:1.0;"/><path d="M213.2188,730.0906 Q212.6406,730.3875 212,730.5281 Q211.3594,730.6844 210.6563,730.6844 Q208.1563,730.6844 206.8281,729.0438 Q205.5156,727.3875 205.5156,724.2625 Q205.5156,721.1375 206.8281,719.4813 Q208.1563,717.825 210.6563,717.825 Q211.3594,717.825 212,717.9813 Q212.6563,718.1375 213.2188,718.4344 L213.2188,721.1531 Q212.5938,720.575 212,720.3094 Q211.4063,720.0281 210.7813,720.0281 Q209.4375,720.0281 208.75,721.1063 Q208.0625,722.1688 208.0625,724.2625 Q208.0625,726.3563 208.75,727.4344 Q209.4375,728.4969 210.7813,728.4969 Q211.4063,728.4969 212,728.2313 Q212.5938,727.95 213.2188,727.3719 L213.2188,730.0906 Z " fill="#000000"/><text fill="#000000" font-family="sans-serif" font-size="14" lengthAdjust="spacing" textLength="63" x="230.75" y="729.2967">FuzzySet</text><line style="stroke:#181818;stroke-width:0.5;" x1="62" x2="430" y1="740.45" y2="740.45"/><rect fill="none" height="6" style="stroke:#C82930;stroke-width:1.0;" width="6" x="69" y="751.0984"/><text fill="#000000" font-family="sans-serif" font-size="14" lengthAdjust="spacing" textLength="107" x="81" y="757.4451">std::string term</text><rect fill="none" height="6" style="stroke:#C82930;stroke-width:1.0;" width="6" x="69" y="767.3953"/><text fill="#000000" font-family="sans-serif" font-size="14" lengthAdjust="spacing" textLength="297" x="81" y="773.742">MembershipFunction membershipFunction</text><rect fill="#F24D5C" height="6" style="stroke:#C82930;stroke-width:1.0;" width="6" x="69" y="783.6922"/><text fill="#000000" font-family="sans-serif" font-size="14" lengthAdjust="spacing" textLength="168" x="81" y="790.0389">double centerOfGravity()</text><rect fill="#F24D5C" height="6" style="stroke:#C82930;stroke-width:1.0;" width="6" x="69" y="799.9891"/><text fill="#000000" font-family="sans-serif" font-size="14" lengthAdjust="spacing" textLength="181" x="81" y="806.3357">double meanOfMaximum()</text><ellipse cx="72" cy="819.2859" fill="#84BE84" rx="3" ry="3" style="stroke:#038048;stroke-width:1.0;"/><text fill="#000000" font-family="sans-serif" font-size="14" lengthAdjust="spacing" textLength="272" x="81" y="822.6326">double evaluateMembership(Data data)</text><ellipse cx="72" cy="835.5828" fill="#84BE84" rx="3" ry="3" style="stroke:#038048;stroke-width:1.0;"/><text fill="#000000" font-family="sans-serif" font-size="14" lengthAdjust="spacing" textLength="234" x="81" y="838.9295">double defuzzify(Method method)</text><line style="stroke:#181818;stroke-width:1.0;stroke-dasharray:1.0,2.0;" x1="62" x2="430" y1="846.2313" y2="846.2313"/><ellipse cx="72" cy="859.8797" fill="#84BE84" rx="3" ry="3" style="stroke:#038048;stroke-width:1.0;"/><text fill="#000000" font-family="sans-serif" font-size="14" lengthAdjust="spacing" textLength="330" x="81" y="863.2264">FuzzySet operator||(FuzzySet lhs, FuzzySet rhs)</text><ellipse cx="72" cy="876.1766" fill="#84BE84" rx="3" ry="3" style="stroke:#038048;stroke-width:1.0;"/><text fill="#000000" font-family="sans-serif" font-size="14" lengthAdjust="spacing" textLength="344" x="81" y="879.5232">FuzzySet operator&amp;&amp;(FuzzySet lhs, FuzzySet rhs)</text><ellipse cx="72" cy="892.4734" fill="#84BE84" rx="3" ry="3" style="stroke:#038048;stroke-width:1.0;"/><text fill="#000000" font-family="sans-serif" font-size="14" lengthAdjust="spacing" textLength="267" x="81" y="895.8201">FuzzySet operator!(FuzzySet fuzzySet)</text></g><!--class LinguisticVariable--><g id="elem_LinguisticVariable"><rect codeLine="22" fill="#F1F1F1" height="96.8906" id="LinguisticVariable" rx="3.5" ry="3.5" style="stroke:#181818;stroke-width:0.5;" width="298" x="22" y="550.56"/><ellipse cx="107.75" cy="566.56" fill="#ADD1B2" rx="11" ry="11" style="stroke:#181818;stroke-width:1.0;"/><path d="M110.7188,572.2006 Q110.1406,572.4975 109.5,572.6381 Q108.8594,572.7944 108.1563,572.7944 Q105.6563,572.7944 104.3281,571.1538 Q103.0156,569.4975 103.0156,566.3725 Q103.0156,563.2475 104.3281,561.5913 Q105.6563,559.935 108.1563,559.935 Q108.8594,559.935 109.5,560.0913 Q110.1563,560.2475 110.7188,560.5444 L110.7188,563.2631 Q110.0938,562.685 109.5,562.4194 Q108.9063,562.1381 108.2813,562.1381 Q106.9375,562.1381 106.25,563.2163 Q105.5625,564.2788 105.5625,566.3725 Q105.5625,568.4663 106.25,569.5444 Q106.9375,570.6069 108.2813,570.6069 Q108.9063,570.6069 109.5,570.3413 Q110.0938,570.06 110.7188,569.4819 L110.7188,572.2006 Z " fill="#000000"/><text fill="#000000" font-family="sans-serif" font-size="14" lengthAdjust="spacing" textLength="118" x="128.25" y="571.4067">LinguisticVariable</text><line style="stroke:#181818;stroke-width:0.5;" x1="23" x2="319" y1="582.56" y2="582.56"/><rect fill="none" height="6" style="stroke:#C82930;stroke-width:1.0;" width="6" x="30" y="593.2084"/><text fill="#000000" font-family="sans-serif" font-size="14" lengthAdjust="spacing" textLength="114" x="42" y="599.5551">std::string name</text><rect fill="none" height="6" style="stroke:#C82930;stroke-width:1.0;" width="6" x="30" y="609.5053"/><text fill="#000000" font-family="sans-serif" font-size="14" lengthAdjust="spacing" textLength="272" x="42" y="615.852">std::map&lt;std::string, FuzzySet&gt; terms</text><line style="stroke:#181818;stroke-width:0.5;" x1="23" x2="319" y1="623.1538" y2="623.1538"/><ellipse cx="33" cy="636.8022" fill="#84BE84" rx="3" ry="3" style="stroke:#038048;stroke-width:1.0;"/><text fill="#000000" font-family="sans-serif" font-size="14" lengthAdjust="spacing" textLength="267" x="42" y="640.1489">FuzzySet operator==(std::string term)</text></g><!--class FuzzyRule--><g id="elem_FuzzyRule"><rect codeLine="28" fill="#F1F1F1" height="96.8906" id="FuzzyRule" rx="3.5" ry="3.5" style="stroke:#181818;stroke-width:0.5;" width="205" x="354.5" y="550.56"/><ellipse cx="417.25" cy="566.56" fill="#ADD1B2" rx="11" ry="11" style="stroke:#181818;stroke-width:1.0;"/><path d="M420.2188,572.2006 Q419.6406,572.4975 419,572.6381 Q418.3594,572.7944 417.6563,572.7944 Q415.1563,572.7944 413.8281,571.1538 Q412.5156,569.4975 412.5156,566.3725 Q412.5156,563.2475 413.8281,561.5913 Q415.1563,559.935 417.6563,559.935 Q418.3594,559.935 419,560.0913 Q419.6563,560.2475 420.2188,560.5444 L420.2188,563.2631 Q419.5938,562.685 419,562.4194 Q418.4063,562.1381 417.7813,562.1381 Q416.4375,562.1381 415.75,563.2163 Q415.0625,564.2788 415.0625,566.3725 Q415.0625,568.4663 415.75,569.5444 Q416.4375,570.6069 417.7813,570.6069 Q418.4063,570.6069 419,570.3413 Q419.5938,570.06 420.2188,569.4819 L420.2188,572.2006 Z " fill="#000000"/><text fill="#000000" font-family="sans-serif" font-size="14" lengthAdjust="spacing" textLength="71" x="437.75" y="571.4067">FuzzyRule</text><line style="stroke:#181818;stroke-width:0.5;" x1="355.5" x2="558.5" y1="582.56" y2="582.56"/><rect fill="none" height="6" style="stroke:#C82930;stroke-width:1.0;" width="6" x="362.5" y="593.2084"/><text fill="#000000" font-family="sans-serif" font-size="14" lengthAdjust="spacing" textLength="147" x="374.5" y="599.5551">FuzzySet antecedent</text><rect fill="none" height="6" style="stroke:#C82930;stroke-width:1.0;" width="6" x="362.5" y="609.5053"/><text fill="#000000" font-family="sans-serif" font-size="14" lengthAdjust="spacing" textLength="151" x="374.5" y="615.852">FuzzySet consequent</text><line style="stroke:#181818;stroke-width:0.5;" x1="355.5" x2="558.5" y1="623.1538" y2="623.1538"/><ellipse cx="365.5" cy="636.8022" fill="#84BE84" rx="3" ry="3" style="stroke:#038048;stroke-width:1.0;"/><text fill="#000000" font-family="sans-serif" font-size="14" lengthAdjust="spacing" textLength="179" x="374.5" y="640.1489">FuzzySet apply(Data data)</text></g><!--class FuzzyControlSystem--><g id="elem_FuzzyControlSystem"><rect codeLine="34" fill="#F1F1F1" height="129.4844" id="FuzzyControlSystem" rx="3.5" ry="3.5" style="stroke:#181818;stroke-width:0.5;" width="244" x="192" y="360.08"/><ellipse cx="239.25" cy="376.08" fill="#ADD1B2" rx="11" ry="11" style="stroke:#181818;stroke-width:1.0;"/><path d="M242.2188,381.7206 Q241.6406,382.0175 241,382.1581 Q240.3594,382.3144 239.6563,382.3144 Q237.1563,382.3144 235.8281,380.6738 Q234.5156,379.0175 234.5156,375.8925 Q234.5156,372.7675 235.8281,371.1113 Q237.1563,369.455 239.6563,369.455 Q240.3594,369.455 241,369.6113 Q241.6563,369.7675 242.2188,370.0644 L242.2188,372.7831 Q241.5938,372.205 241,371.9394 Q240.4063,371.6581 239.7813,371.6581 Q238.4375,371.6581 237.75,372.7363 Q237.0625,373.7988 237.0625,375.8925 Q237.0625,377.9863 237.75,379.0644 Q238.4375,380.1269 239.7813,380.1269 Q240.4063,380.1269 241,379.8613 Q241.5938,379.58 242.2188,379.0019 L242.2188,381.7206 Z " fill="#000000"/><text fill="#000000" font-family="sans-serif" font-size="14" lengthAdjust="spacing" textLength="141" x="259.75" y="380.9267">FuzzyControlSystem</text><line style="stroke:#181818;stroke-width:0.5;" x1="193" x2="435" y1="392.08" y2="392.08"/><rect fill="none" height="6" style="stroke:#C82930;stroke-width:1.0;" width="6" x="200" y="402.7284"/><text fill="#000000" font-family="sans-serif" font-size="14" lengthAdjust="spacing" textLength="207" x="212" y="409.0751">FuzzyControlSettings settings</text><rect fill="none" height="6" style="stroke:#C82930;stroke-width:1.0;" width="6" x="200" y="419.0253"/><text fill="#000000" font-family="sans-serif" font-size="14" lengthAdjust="spacing" textLength="174" x="212" y="425.372">std::string outputDomain</text><line style="stroke:#181818;stroke-width:0.5;" x1="193" x2="435" y1="432.6738" y2="432.6738"/><ellipse cx="203" cy="446.3222" fill="#84BE84" rx="3" ry="3" style="stroke:#038048;stroke-width:1.0;"/><text fill="#000000" font-family="sans-serif" font-size="14" lengthAdjust="spacing" textLength="200" x="212" y="449.6689">void addRule(FuzzyRule rule)</text><ellipse cx="203" cy="462.6191" fill="#84BE84" rx="3" ry="3" style="stroke:#038048;stroke-width:1.0;"/><text fill="#000000" font-family="sans-serif" font-size="14" lengthAdjust="spacing" textLength="218" x="212" y="465.9657">FuzzySet applyRules(Data data)</text><ellipse cx="203" cy="478.9159" fill="#84BE84" rx="3" ry="3" style="stroke:#038048;stroke-width:1.0;"/><text fill="#000000" font-family="sans-serif" font-size="14" lengthAdjust="spacing" textLength="176" x="212" y="482.2626">double predict(Data data)</text></g><!--class OutputMapper--><g id="elem_OutputMapper"><rect codeLine="45" fill="#F1F1F1" height="80.5938" id="OutputMapper" rx="3.5" ry="3.5" style="stroke:#181818;stroke-width:0.5;" width="302" x="558" y="156.74"/><ellipse cx="654.75" cy="172.74" fill="#ADD1B2" rx="11" ry="11" style="stroke:#181818;stroke-width:1.0;"/><path d="M657.7188,178.3806 Q657.1406,178.6775 656.5,178.8181 Q655.8594,178.9744 655.1563,178.9744 Q652.6563,178.9744 651.3281,177.3338 Q650.0156,175.6775 650.0156,172.5525 Q650.0156,169.4275 651.3281,167.7713 Q652.6563,166.115 655.1563,166.115 Q655.8594,166.115 656.5,166.2713 Q657.1563,166.4275 657.7188,166.7244 L657.7188,169.4431 Q657.0938,168.865 656.5,168.5994 Q655.9063,168.3181 655.2813,168.3181 Q653.9375,168.3181 653.25,169.3963 Q652.5625,170.4588 652.5625,172.5525 Q652.5625,174.6463 653.25,175.7244 Q653.9375,176.7869 655.2813,176.7869 Q655.9063,176.7869 656.5,176.5213 Q657.0938,176.24 657.7188,175.6619 L657.7188,178.3806 Z " fill="#000000"/><text fill="#000000" font-family="sans-serif" font-size="14" lengthAdjust="spacing" textLength="100" x="675.25" y="177.5867">OutputMapper</text><line style="stroke:#181818;stroke-width:0.5;" x1="559" x2="859" y1="188.74" y2="188.74"/><rect fill="none" height="6" style="stroke:#C82930;stroke-width:1.0;" width="6" x="566" y="199.3884"/><text fill="#000000" font-family="sans-serif" font-size="14" lengthAdjust="spacing" textLength="276" x="578" y="205.7351">std::map&lt;double, Configurations&gt; map</text><line style="stroke:#181818;stroke-width:0.5;" x1="559" x2="859" y1="213.0369" y2="213.0369"/><ellipse cx="569" cy="226.6853" fill="#84BE84" rx="3" ry="3" style="stroke:#038048;stroke-width:1.0;"/><text fill="#000000" font-family="sans-serif" font-size="14" lengthAdjust="spacing" textLength="275" x="578" y="230.032">Configurations closestConfigs(double x)</text></g><!--class FuzzyTuning--><g id="elem_FuzzyTuning"><rect codeLine="50" fill="#F1F1F1" height="162.0781" id="FuzzyTuning" rx="3.5" ry="3.5" style="stroke:#181818;stroke-width:0.5;" width="419" x="104.5" y="116"/><ellipse cx="265.75" cy="132" fill="#ADD1B2" rx="11" ry="11" style="stroke:#181818;stroke-width:1.0;"/><path d="M268.7188,137.6406 Q268.1406,137.9375 267.5,138.0781 Q266.8594,138.2344 266.1563,138.2344 Q263.6563,138.2344 262.3281,136.5938 Q261.0156,134.9375 261.0156,131.8125 Q261.0156,128.6875 262.3281,127.0313 Q263.6563,125.375 266.1563,125.375 Q266.8594,125.375 267.5,125.5313 Q268.1563,125.6875 268.7188,125.9844 L268.7188,128.7031 Q268.0938,128.125 267.5,127.8594 Q266.9063,127.5781 266.2813,127.5781 Q264.9375,127.5781 264.25,128.6563 Q263.5625,129.7188 263.5625,131.8125 Q263.5625,133.9063 264.25,134.9844 Q264.9375,136.0469 266.2813,136.0469 Q266.9063,136.0469 267.5,135.7813 Q268.0938,135.5 268.7188,134.9219 L268.7188,137.6406 Z " fill="#000000"/><text fill="#000000" font-family="sans-serif" font-size="14" lengthAdjust="spacing" textLength="88" x="286.25" y="136.8467">FuzzyTuning</text><line style="stroke:#181818;stroke-width:0.5;" x1="105.5" x2="522.5" y1="148" y2="148"/><line style="stroke:#181818;stroke-width:0.5;" x1="105.5" x2="522.5" y1="156" y2="156"/><rect fill="#F24D5C" height="6" style="stroke:#C82930;stroke-width:1.0;" width="6" x="112.5" y="166.6484"/><text fill="#000000" font-family="sans-serif" font-size="14" lengthAdjust="spacing" textLength="316" x="124.5" y="172.9951">FuzzyFile parseFuzzyRuleFile(std::string path)</text><rect fill="#F24D5C" height="6" style="stroke:#C82930;stroke-width:1.0;" width="6" x="112.5" y="182.9453"/><text fill="#000000" font-family="sans-serif" font-size="14" lengthAdjust="spacing" textLength="369" x="124.5" y="189.292">void evaluateSuitability(Configurations &amp;configQueue)</text><rect fill="#F24D5C" height="6" style="stroke:#C82930;stroke-width:1.0;" width="6" x="112.5" y="199.2422"/><text fill="#000000" font-family="sans-serif" font-size="14" lengthAdjust="spacing" textLength="368" x="124.5" y="205.5889">void evaluateIndividual(Configurations &amp;configQueue)</text><ellipse cx="115.5" cy="218.5391" fill="#84BE84" rx="3" ry="3" style="stroke:#038048;stroke-width:1.0;"/><text fill="#000000" font-family="sans-serif" font-size="14" lengthAdjust="spacing" textLength="139" x="124.5" y="221.8857">bool needsLiveInfo()</text><ellipse cx="115.5" cy="234.8359" fill="#84BE84" rx="3" ry="3" style="stroke:#038048;stroke-width:1.0;"/><text fill="#000000" font-family="sans-serif" font-size="14" lengthAdjust="spacing" textLength="234" x="124.5" y="238.1826">void receiveLiveInfo(LiveInfo value)</text><ellipse cx="115.5" cy="251.1328" fill="#84BE84" rx="3" ry="3" style="stroke:#038048;stroke-width:1.0;"/><text fill="#000000" font-family="sans-serif" font-size="14" lengthAdjust="spacing" textLength="283" x="124.5" y="254.4795">void reset(Configurations &amp;configQueue)</text><ellipse cx="115.5" cy="267.4297" fill="#84BE84" rx="3" ry="3" style="stroke:#038048;stroke-width:1.0;"/><text fill="#000000" font-family="sans-serif" font-size="14" lengthAdjust="spacing" textLength="393" x="124.5" y="270.7764">void optimizeSuggestions(Configurations &amp;configQueue)</text></g><!--class TuningStrategyInterface--><g id="elem_TuningStrategyInterface"><rect codeLine="62" fill="#F1F1F1" height="48" id="TuningStrategyInterface" rx="3.5" ry="3.5" style="stroke:#181818;stroke-width:0.5;" width="197" x="215.5" y="7"/><ellipse cx="230.5" cy="23" fill="#B4A7E5" rx="11" ry="11" style="stroke:#181818;stroke-width:1.0;"/><path d="M226.4219,18.7656 L226.4219,16.6094 L233.8125,16.6094 L233.8125,18.7656 L231.3438,18.7656 L231.3438,26.8438 L233.8125,26.8438 L233.8125,29 L226.4219,29 L226.4219,26.8438 L228.8906,26.8438 L228.8906,18.7656 L226.4219,18.7656 Z " fill="#000000"/><text fill="#000000" font-family="sans-serif" font-size="14" font-style="italic" lengthAdjust="spacing" textLength="165" x="244.5" y="27.8467">TuningStrategyInterface</text><line style="stroke:#181818;stroke-width:0.5;" x1="216.5" x2="411.5" y1="39" y2="39"/><line style="stroke:#181818;stroke-width:0.5;" x1="216.5" x2="411.5" y1="47" y2="47"/></g><!--reverse link FuzzySet to CrispSet--><g id="link_FuzzySet_CrispSet"><path codeLine="65" d="M246,915.38 C246,936.75 246,946.22 246,963.77 " fill="none" id="FuzzySet-backto-CrispSet" style="stroke:#191919;stroke-width:1.0;"/><polygon fill="#191919" points="246,903.38,242,909.38,246,915.38,250,909.38,246,903.38" style="stroke:#191919;stroke-width:1.0;"/><text fill="#000000" font-family="sans-serif" font-size="13" lengthAdjust="spacing" textLength="8" x="237.7063" y="923.1696">1</text><text fill="#000000" font-family="sans-serif" font-size="13" lengthAdjust="spacing" textLength="8" x="237.3625" y="953.1725">1</text></g><!--reverse link FuzzySet to FuzzySet--><g id="link_FuzzySet_FuzzySet"><path codeLine="66" d="M443.1882,787.6167 C464.1882,791.4167 466,796.05 466,805.79 C466,815.53 452.38,822.3 431.38,826.1 " fill="none" id="FuzzySet-backto-FuzzySet" style="stroke:#191919;stroke-width:1.0;"/><polygon fill="#191919" points="431.38,785.48,436.5719,790.4844,443.1882,787.6167,437.9964,782.6123,431.38,785.48" style="stroke:#191919;stroke-width:1.0;"/><text fill="#000000" font-family="sans-serif" font-size="13" lengthAdjust="spacing" textLength="59" x="472" y="810.3569">based on</text><text fill="#000000" font-family="sans-serif" font-size="13" lengthAdjust="spacing" textLength="54" x="439.0124" y="781.55">parent 1</text><text fill="#000000" font-family="sans-serif" font-size="13" lengthAdjust="spacing" textLength="78" x="438.7425" y="839.0817">children 0..2</text></g><!--reverse link LinguisticVariable to FuzzySet--><g id="link_LinguisticVariable_FuzzySet"><path codeLine="68" d="M192.6139,659.0291 C199.2339,677.1191 202.91,687.14 210.59,708.12 " fill="none" id="LinguisticVariable-backto-FuzzySet" style="stroke:#191919;stroke-width:1.0;"/><polygon fill="#191919" points="188.49,647.76,186.7956,654.7692,192.6139,659.0291,194.3083,652.0199,188.49,647.76" style="stroke:#191919;stroke-width:1.0;"/><text fill="#000000" font-family="sans-serif" font-size="13" lengthAdjust="spacing" textLength="8" x="182.3027" y="667.395">1</text><text fill="#000000" font-family="sans-serif" font-size="13" lengthAdjust="spacing" textLength="7" x="200.7325" y="697.4686">*</text></g><!--reverse link FuzzyRule to FuzzySet--><g id="link_FuzzyRule_FuzzySet"><path codeLine="69" d="M399.1886,656.1173 C380.5486,674.2073 367.22,687.14 345.61,708.12 " fill="none" id="FuzzyRule-backto-FuzzySet" style="stroke:#191919;stroke-width:1.0;"/><polygon fill="#191919" points="407.8,647.76,400.7086,649.0682,399.1886,656.1173,406.2801,654.8091,407.8,647.76" style="stroke:#191919;stroke-width:1.0;"/><text fill="#000000" font-family="sans-serif" font-size="13" lengthAdjust="spacing" textLength="8" x="392.6513" y="667.395">1</text><text fill="#000000" font-family="sans-serif" font-size="13" lengthAdjust="spacing" textLength="8" x="344.6314" y="697.4686">2</text></g><!--reverse link FuzzyControlSystem to FuzzyRule--><g id="link_FuzzyControlSystem_FuzzyRule"><path codeLine="71" d="M374.9158,499.1723 C391.5058,519.1523 401.85,531.6 417.34,550.26 " fill="none" id="FuzzyControlSystem-backto-FuzzyRule" style="stroke:#191919;stroke-width:1.0;"/><polygon fill="#191919" points="367.25,489.94,368.0055,497.1114,374.9158,499.1723,374.1603,492.0009,367.25,489.94" style="stroke:#191919;stroke-width:1.0;"/><text fill="#000000" font-family="sans-serif" font-size="13" lengthAdjust="spacing" textLength="8" x="364.3289" y="509.5025">1</text><text fill="#000000" font-family="sans-serif" font-size="13" lengthAdjust="spacing" textLength="7" x="404.2706" y="539.4267">*</text></g><!--reverse link FuzzyTuning to FuzzyControlSystem--><g id="link_FuzzyTuning_FuzzyControlSystem"><path codeLine="73" d="M314,290.28 C314,317.02 314,334.44 314,359.79 " fill="none" id="FuzzyTuning-backto-FuzzyControlSystem" style="stroke:#191919;stroke-width:1.0;"/><polygon fill="none" points="314,278.28,310,284.28,314,290.28,318,284.28,314,278.28" style="stroke:#191919;stroke-width:1.0;"/><text fill="#000000" font-family="sans-serif" font-size="13" lengthAdjust="spacing" textLength="8" x="305.6438" y="298.2563">1</text><text fill="#000000" font-family="sans-serif" font-size="13" lengthAdjust="spacing" textLength="7" x="306.6172" y="348.9309">*</text></g><!--reverse link FuzzyTuning to OutputMapper--><g id="link_FuzzyTuning_OutputMapper"><path codeLine="74" d="M535.84,197.04 C547.17,197.04 546.51,197.04 557.84,197.04 " fill="none" id="FuzzyTuning-backto-OutputMapper" style="stroke:#191919;stroke-width:1.0;"/><polygon fill="#191919" points="523.84,197.04,529.84,201.04,535.84,197.04,529.84,193.04,523.84,197.04" style="stroke:#191919;stroke-width:1.0;"/><text fill="#000000" font-family="sans-serif" font-size="13" lengthAdjust="spacing" textLength="8" x="531.5249" y="193.8398">1</text><text fill="#000000" font-family="sans-serif" font-size="13" lengthAdjust="spacing" textLength="7" x="542.8653" y="193.7238">*</text></g><!--reverse link TuningStrategyInterface to FuzzyTuning--><g id="link_TuningStrategyInterface_FuzzyTuning"><path codeLine="75" d="M314,73.16 C314,89.14 314,93.43 314,115.57 " fill="none" id="TuningStrategyInterface-backto-FuzzyTuning" style="stroke:#191919;stroke-width:1.0;stroke-dasharray:7.0,7.0;"/><polygon fill="none" points="314,55.16,308,73.16,320,73.16,314,55.16" style="stroke:#191919;stroke-width:1.0;"/></g><!--link LinguisticVariable to FuzzyRule--><!--link FuzzyControlSystem to LinguisticVariable--><!--SRC=[dLJ9Rjim4BthAvWS0dcHqVPeDBuaS14WHj2wwANeWHP75b69PBaOSPB-UuTQACbo4g268L4pRpXlrWkRGmcafDf4WfPW54s1K6UbecQvNBkdf-EztFEKF4SH8Mb1ZI4tcXkr1OioWhzP-9OADBLIJ-CWqhcPLAZ4MBPSbbHzhWx6QYxsSt8dBEW3BLRazmqK1KB_TeugzvsZf6T9qAoifHieTw1DpjNQYTHoAKWv4jLG9jsk09A2z_gGVT7qmEqndWoq9L3na6te8ozTsUXcZGwGggCMEf_nBRMKC7mCaGmoPC-pOxm1cqk6r_fN3LeiQcm8iCtSoqiSP4LkvbqAGYB7HbTN_s5qqTbapM4opFuzfjbnOtdwWsfEVL3FhrnsVHsVrcOoBfbliBTweRrsLLrWplJ2DnT89844nMAcmB2c9ufK2WD_NAleQ5EbYkEmSAUURgImMXRRex5Gjd4V96U4CkPfn1qXZO_9EHTUQrvh4AM1yTIUgfE1Ux0MKsE8QGxZf4fdbREtigHSr77WFweZUQXq6-G2kefXXlTcVE-mQ3WJ1WEM1eojfIPkc3rw9bsDQkcS36rNk3IKzzLBsdSdF2NlgGvZpNsWk5mWPCkB1isYgCqhXrLssm7REcxfZXT-F4z8NwNLzrS73iQ6TuBn0sUE5k_PpNPI5aG0C7FF3sYOoMhQwp9hx2cK1arx8DuFz75OctTTLL2fB2_v4yQstsFMFV9jGr_9YFjTbVcrNATtQn4C- -DTa3zxNEYyou-NP9earJkiuPuQou4JGLfKclE2eOHyM2m-NNQhOqbsr02I5b5qPXC4BzEUJTJDHD3txsnO3cThT5Dbtq2RZl8OsSSChXX1fuckiOC16C0MRl6oUYsZqTcG4_qpvmptpA-a8teMw4w00xR_0000]--></g></svg>